<svg width="15" height="15" fill="none" xmlns="http://www.w3.org/2000/svg"><path d="M12.785 2.215A7.473 7.473 0 000 7.492a7.474 7.474 0 002.215 5.293 7.474 7.474 0 1010.57-10.57zM1.094 7.5c0-.567.075-1.131.223-1.679.245.528.6.983.843 1.524.312.695 1.152.502 1.523 1.112.329.54-.023 1.224.223 1.79.18.411.601.5.892.801.297.303.291.718.336 1.113.052.464.135.925.249 1.377 0 .004 0 .007.003.01A6.42 6.42 0 011.094 7.5zM7.5 13.906c-.358 0-.715-.03-1.068-.09.004-.09.006-.174.015-.233.08-.53.346-1.05.705-1.446.354-.392.839-.657 1.138-1.101.293-.434.38-1.018.26-1.525-.178-.748-1.195-.998-1.744-1.404-.315-.234-.596-.595-1.01-.624-.19-.014-.35.027-.54-.021-.173-.045-.31-.139-.494-.114-.346.045-.564.414-.935.364-.352-.047-.714-.46-.794-.795-.103-.43.238-.57.603-.609.153-.016.324-.033.47.023.193.071.284.26.457.356.325.178.39-.107.341-.395-.074-.432-.161-.608.224-.905.267-.205.495-.353.452-.721-.025-.216-.143-.314-.033-.53.084-.163.314-.31.464-.409.386-.252 1.656-.233 1.137-.94-.152-.206-.433-.577-.7-.628-.334-.063-.482.31-.715.474-.24.17-.708.363-.948.1-.324-.353.214-.47.333-.716.055-.115 0-.275-.092-.425.12-.051.242-.098.367-.142a.52.52 0 00.267.1c.223.015.433-.106.628.047.216.166.372.377.66.43.277.05.57-.112.64-.396.041-.173 0-.356-.04-.534A6.367 6.367 0 0111.05 2.17c-.067-.025-.147-.022-.245.024-.203.094-.49.333-.513.571-.027.27.37.308.56.308.283 0 .57-.127.479-.455-.04-.142-.094-.29-.181-.38.21.146.41.304.6.473l-.008.009c-.193.2-.416.358-.547.602a.527.527 0 01-.385.297c-.104.025-.222.034-.309.103-.241.19-.104.647.125.784.29.174.718.092.937-.155.17-.194.27-.53.577-.53.135 0 .265.053.361.148.127.131.102.254.129.418.048.292.305.134.461-.013.114.203.217.412.309.626-.172.248-.31.518-.723.23-.248-.174-.4-.425-.712-.503-.272-.067-.55.002-.82.049-.304.053-.666.076-.898.307-.224.223-.342.521-.58.745-.461.434-.656.908-.358 1.52.287.59.888.91 1.535.868.637-.042 1.297-.411 1.28.514-.008.327.06.553.161.857.093.28.087.552.109.842.02.338.073.674.158 1.003A6.398 6.398 0 017.5 13.906z" fill="#D3D3D3"/></svg>